Coordinates
version=1
nRows=24
nColumns=38
inDegrees=no

Units are S.I. units (second, meters, Newtons, ...)
If the header above contains a line with 'inDegrees', this indicates whether rotational values are in degrees (yes) or radians (no).

endheader
time	pelvis_tilt	pelvis_list	pelvis_rotation	pelvis_tx	pelvis_ty	pelvis_tz	hip_flexion_r	hip_adduction_r	hip_rotation_r	knee_angle_r	ankle_angle_r	subtalar_angle_r	mtp_angle_r	hip_flexion_l	hip_adduction_l	hip_rotation_l	knee_angle_l	ankle_angle_l	subtalar_angle_l	mtp_angle_l	lumbar_extension	lumbar_bending	lumbar_rotation	arm_flex_r	arm_add_r	arm_rot_r	elbow_flex_r	pro_sup_r	wrist_flex_r	wrist_dev_r	arm_flex_l	arm_add_l	arm_rot_l	elbow_flex_l	pro_sup_l	wrist_flex_l	wrist_dev_l
20	0.909363	1.4284	0.561981	0.849555	-0.459828	0.977451	0.0626116	0.141196	-0.219422	0.260182	0.115697	0	0	0.0930957	-0.181307	-0.227354	0.0622563	-0.0236438	0	0	-0.0993733	0.166308	0.0643062	0.585679	-0.185088	0.256257	1.32282	1.5708	0	0	0.64757	-0.176237	0.192002	1.00915	1.5708	0	0
20.01	0.914213	1.42858	0.556026	0.849217	-0.459545	0.977558	0.0617849	0.141139	-0.218375	0.260538	0.115601	0	0	0.0919939	-0.181203	-0.228105	0.0627552	-0.0231106	0	0	-0.100013	0.167259	0.0637393	0.584714	-0.18583	0.258945	1.32576	1.5708	0	0	0.643175	-0.178001	0.191294	1.01474	1.5708	0	0
20.02	0.836828	1.42865	0.641832	0.847887	-0.461008	0.977636	0.0761748	0.132543	-0.225806	0.265323	0.115347	0	0	0.10749	-0.177384	-0.249402	0.0597457	-0.0319294	0	0	-0.0927357	0.161301	0.0533895	0.585013	-0.182473	0.255805	1.32536	1.5708	0	0	0.642286	-0.179101	0.189629	1.01684	1.5708	0	0
20.03	0.922181	1.42875	0.545927	0.84848	-0.458889	0.977761	0.0596513	0.140954	-0.216424	0.259849	0.11481	0	0	0.0902481	-0.180876	-0.230001	0.0640275	-0.0218478	0	0	-0.100369	0.169389	0.0633759	0.582166	-0.183449	0.256879	1.32962	1.5708	0	0	0.63481	-0.17949	0.187786	1.02252	1.5708	0	0
20.04	0.919646	1.4278	0.546782	0.848027	-0.458488	0.977828	0.0595606	0.141263	-0.214355	0.258777	0.11394	0	0	0.0905389	-0.180972	-0.231425	0.0644829	-0.0215634	0	0	-0.101127	0.171342	0.057334	0.585214	-0.178573	0.262302	1.32922	1.5708	0	0	0.623649	-0.133973	-0.0875587	1.13327	0.926881	0	0
20.05	0.930703	1.42896	0.535377	0.847741	-0.458182	0.977962	0.0564069	0.140954	-0.213917	0.257367	0.113785	0	0	0.0881226	-0.180392	-0.231994	0.0647061	-0.0213142	0	0	-0.100414	0.171409	0.0644399	0.57772	-0.181933	0.252802	1.33639	1.5708	0	0	0.62829	-0.182252	0.191727	1.02847	1.5708	0	0
20.06	0.931369	1.42877	0.534052	0.847306	-0.457826	0.978045	0.0553738	0.140854	-0.213045	0.255944	0.11308	0	0	0.0877021	-0.180048	-0.232541	0.0648912	-0.0209644	0	0	-0.0996589	0.17256	0.0648006	0.574882	-0.181661	0.250985	1.34095	1.5708	0	0	0.624329	-0.181172	0.18759	1.03087	1.5708	0	0
20.07	0.932202	1.42878	0.532787	0.846889	-0.457476	0.978142	0.0542636	0.140626	-0.212281	0.25465	0.112487	0	0	0.0871675	-0.17958	-0.233037	0.0650419	-0.0206655	0	0	-0.098927	0.173393	0.0653082	0.571887	-0.181871	0.249366	1.34553	1.5708	0	0	0.621718	-0.181642	0.189614	1.03299	1.5708	0	0
20.08	0.933352	1.42872	0.53147	0.846466	-0.457146	0.978243	0.0531664	0.140446	-0.211711	0.253255	0.111598	0	0	0.0866945	-0.179202	-0.233378	0.0651652	-0.0203487	0	0	-0.0982378	0.174251	0.0659836	0.568667	-0.182289	0.246897	1.35029	1.5708	0	0	0.619864	-0.181881	0.192789	1.03492	1.5708	0	0
20.09	0.933867	1.42853	0.531152	0.846007	-0.456812	0.978322	0.0522795	0.140278	-0.211405	0.251936	0.110683	0	0	0.0864969	-0.178863	-0.233601	0.0652028	-0.0199105	0	0	-0.0972986	0.175297	0.0666212	0.565224	-0.182893	0.243879	1.35533	1.5708	0	0	0.616719	-0.18261	0.194514	1.03743	1.5708	0	0
20.1	0.935914	1.42827	0.52977	0.845524	-0.456488	0.978385	0.051228	0.140312	-0.21113	0.250566	0.11013	0	0	0.0863391	-0.178646	-0.233612	0.065182	-0.0193297	0	0	-0.0965438	0.17651	0.0670525	0.561801	-0.183899	0.240937	1.36072	1.5708	0	0	0.614638	-0.183046	0.198024	1.04053	1.5708	0	0
20.11	0.938218	1.42808	0.528706	0.845011	-0.456167	0.978447	0.0501948	0.140222	-0.211351	0.249342	0.109871	0	0	0.086356	-0.178306	-0.232926	0.065424	-0.0189481	0	0	-0.0957613	0.177708	0.0670469	0.558156	-0.185449	0.238285	1.36614	1.5708	0	0	0.612184	-0.183851	0.20217	1.04336	1.5708	0	0
20.12	0.938971	1.42798	0.529785	0.844452	-0.455842	0.978495	0.0494368	0.139812	-0.212127	0.248337	0.109852	0	0	0.0867358	-0.177655	-0.231588	0.0658838	-0.0188486	0	0	-0.0946156	0.178723	0.0662795	0.554587	-0.187127	0.235966	1.37094	1.5708	0	0	0.608609	-0.185132	0.205172	1.04641	1.5708	0	0
20.13	0.932694	1.42697	0.537629	0.843826	-0.455483	0.978481	0.050239	0.139592	-0.212166	0.247596	0.109316	0	0	0.0884113	-0.177121	-0.230468	0.0661473	-0.0187413	0	0	-0.0940287	0.180283	0.0585042	0.556234	-0.185224	0.241886	1.37226	1.5708	0	0	0.596745	-0.140492	-0.0616415	1.15495	0.913017	0	0
20.14	0.940912	1.42819	0.531794	0.843412	-0.455297	0.978554	0.0483332	0.138724	-0.21308	0.247431	0.109519	0	0	0.0872742	-0.175948	-0.228997	0.0663166	-0.0186239	0	0	-0.0925816	0.179771	0.0637331	0.548513	-0.190931	0.234024	1.37942	1.5708	0	0	0.60387	-0.188646	0.216059	1.0539	1.5708	0	0
20.15	0.939806	1.4282	0.534824	0.842906	-0.455051	0.978571	0.0485854	0.138059	-0.21334	0.247818	0.10939	0	0	0.0877822	-0.174981	-0.227862	0.0662377	-0.0187659	0	0	-0.0911978	0.180254	0.0616768	0.546555	-0.192237	0.234361	1.38204	1.5708	0	0	0.599538	-0.188364	0.213446	1.05643	1.5708	0	0
20.16	0.938951	1.42827	0.538035	0.842397	-0.454812	0.978591	0.0489508	0.137269	-0.214317	0.248496	0.109366	0	0	0.0883241	-0.173964	-0.226455	0.06611	-0.0190222	0	0	-0.0897974	0.180431	0.0591867	0.543939	-0.193762	0.233445	1.38535	1.5708	0	0	0.59593	-0.18895	0.214655	1.05913	1.5708	0	0
20.17	0.860169	1.42844	0.628553	0.840998	-0.456315	0.978627	0.0640742	0.128463	-0.223479	0.253937	0.109427	0	0	0.104235	-0.169521	-0.244811	0.061377	-0.0291901	0	0	-0.0811229	0.173662	0.0466628	0.541835	-0.192859	0.228733	1.3873	1.5708	0	0	0.595555	-0.189842	0.216301	1.06065	1.5708	0	0
20.18	0.941918	1.42872	0.540051	0.841461	-0.45425	0.978734	0.0488124	0.135783	-0.216878	0.249956	0.109432	0	0	0.0883784	-0.172049	-0.224025	0.06543	-0.0195064	0	0	-0.0877045	0.180538	0.0536291	0.536638	-0.196103	0.228353	1.39389	1.5708	0	0	0.58861	-0.18999	0.217768	1.06647	1.5708	0	0
20.19	0.945529	1.42892	0.538392	0.841082	-0.453978	0.978836	0.0485328	0.135307	-0.217641	0.250848	0.109326	0	0	0.0877308	-0.171412	-0.2232	0.064738	-0.0196827	0	0	-0.087014	0.180738	0.0511271	0.533521	-0.19655	0.22641	1.39734	1.5708	0	0	0.58505	-0.189811	0.218315	1.07058	1.5708	0	0
20.2	0.949486	1.42891	0.536182	0.840755	-0.453735	0.978915	0.0485952	0.134961	-0.218782	0.252235	0.109345	0	0	0.0869446	-0.171013	-0.22221	0.0636181	-0.0198745	0	0	-0.0864225	0.181097	0.0488239	0.530388	-0.196637	0.224313	1.40136	1.5708	0	0	0.582105	-0.188991	0.218915	1.07565	1.5708	0	0
20.21	0.951592	1.42876	0.535645	0.840463	-0.453503	0.978974	0.0489767	0.134649	-0.219775	0.253633	0.10942	0	0	0.0864114	-0.170664	-0.221221	0.0623959	-0.0205355	0	0	-0.0855513	0.181466	0.0468433	0.526715	-0.196461	0.221602	1.40588	1.5708	0	0	0.577609	-0.188609	0.217627	1.08128	1.5708	0	0
20.22	0.951487	1.42857	0.537408	0.840175	-0.45323	0.979024	0.0494663	0.134203	-0.220712	0.254749	0.109506	0	0	0.086366	-0.170208	-0.220285	0.0616217	-0.0212179	0	0	-0.084232	0.181736	0.0451028	0.522069	-0.19624	0.217959	1.41081	1.5708	0	0	0.571153	-0.188686	0.214175	1.08703	1.5708	0	0
20.23	0.950793	1.42856	0.539561	0.839922	-0.452966	0.979072	0.0499716	0.133545	-0.221479	0.255994	0.109647	0	0	0.0864349	-0.169597	-0.219531	0.0612822	-0.0217375	0	0	-0.0830332	0.181724	0.0436638	0.517036	-0.19583	0.213908	1.41578	1.5708	0	0	0.565073	-0.188395	0.211022	1.09181	1.5708	0	0
